<svg width="702" height="702" viewBox="0 0 702 702" fill="none" xmlns="http://www.w3.org/2000/svg">
<g clip-path="url(#clip0_70_1660)">
<rect width="702" height="702" fill="#643CDA"/>
<g opacity="0.5" filter="url(#filter0_f_70_1660)">
<circle cx="21" cy="-47" r="237" fill="white"/>
</g>
<g opacity="0.5" filter="url(#filter1_f_70_1660)">
<circle cx="150.5" cy="741.5" r="199.5" fill="white"/>
</g>
<g opacity="0.5" filter="url(#filter2_f_70_1660)">
<circle cx="702" cy="337" r="138" fill="white"/>
</g>
<path fill-rule="evenodd" clip-rule="evenodd" d="M352.905 161H225.482C225.482 161 233.915 173.198 237.759 181.818C238.494 183.465 239.22 185.338 239.91 187.274C243.612 197.664 244.727 208.745 244.783 219.775L245.486 358.63C245.495 360.264 244.885 361.841 243.78 363.045L239.884 367.29C231.81 376.087 225.826 386.595 222.378 398.026C219.147 408.743 218.219 420.023 219.658 431.124C221.878 448.253 229.63 464.189 241.735 476.51L252.972 487.948C252.972 487.948 247.29 472.799 246.033 462.326C245.892 461.148 245.768 459.864 245.661 458.536C244.825 448.193 246.899 437.871 250.66 428.2C253.082 421.972 256.267 416.069 260.144 410.626L264.21 404.916C265.967 402.448 267.94 400.141 270.105 398.022L398.378 272.468C410.872 260.239 417.914 243.493 417.914 226.009C417.914 190.106 388.809 161 352.905 161ZM287.936 310.073V206.076C287.936 204.324 289.357 202.903 291.11 202.903H353.704C365.14 202.903 374.411 212.173 374.411 223.609C374.411 229.145 372.193 234.451 368.255 238.341L293.34 312.331C291.335 314.311 287.936 312.891 287.936 310.073ZM436.597 224.254C436.43 206.373 424.854 179.683 424.854 179.683C424.854 179.683 444.874 193.718 453.412 206.372C456.105 210.364 458.837 215.968 460.825 220.396C462.919 225.057 464.46 229.938 465.41 234.959C466.526 240.861 467.783 249.121 467.557 255.481C467.136 267.371 465.386 274.369 461.152 285.641C457.197 296.168 447.565 310.38 445.914 312.78C461.574 326.371 472.954 344.349 478.485 364.526C485.135 388.785 482.893 414.622 472.163 437.372C461.432 460.123 442.921 478.286 419.971 488.584C409.31 493.368 398.017 496.308 386.561 497.372C384.026 497.664 381.483 497.823 378.947 497.823H295.384C294.804 497.823 294.332 498.279 294.328 498.859C294.307 501.976 294.384 511.446 295.943 517.84C298.235 527.243 307.686 541.861 307.686 541.861C307.686 541.861 297.355 536.463 292.473 532.52C286.194 527.449 281.6 521.956 276.46 513.837C269.801 503.323 267.046 496.437 264.716 484.212C262.393 472.028 262.493 464.653 264.716 452.451C267.389 437.777 270.163 431.018 279.104 417.934C280.525 415.854 282.158 413.922 283.937 412.14L413.114 282.708C415.424 280.394 417.643 277.991 419.648 275.409C422.672 271.516 427.186 265.353 429.658 260.285C436.058 247.168 436.734 238.85 436.597 224.254ZM315.28 451.917C312.462 451.917 311.042 448.519 313.022 446.514L410.99 347.302C412.064 346.214 413.759 346.05 414.994 346.951C415.605 347.397 416.319 347.928 417.1 348.527C425.306 356.062 431.28 365.793 434.256 376.651C438.014 390.357 436.747 404.955 430.684 417.809C429.336 420.667 427.771 423.397 426.009 425.978C415.023 440.792 397.787 450.723 378.147 451.816V451.917H315.28Z" fill="white"/>
<path opacity="0.5" d="M287.859 283.772L287.859 299.107V309.128L287.943 311.477C288.019 313.595 290.475 314.722 292.13 313.398L244.355 362.24L244.889 360.905L245.222 359.906C245.355 359.507 245.421 359.09 245.418 358.67L245.156 327.01L287.859 283.772Z" fill="url(#paint0_linear_70_1660)"/>
<path opacity="0.5" d="M311.88 447.647C310.67 449.626 312.24 452.137 314.549 451.917L338.303 451.917L332.262 458.694C329.005 462.349 326.173 466.362 323.821 470.657L323.428 471.374C321.959 474.056 320.718 476.856 319.715 479.744C317.709 485.529 316.684 491.701 316.684 497.823L295.332 497.823C294.743 497.823 294.265 498.301 294.265 498.891L294.332 495.991C294.465 490.291 295.229 484.623 296.612 479.092C298.593 471.168 301.821 463.609 306.176 456.699L311.88 447.647Z" fill="url(#paint1_linear_70_1660)"/>
<path opacity="0.5" d="M446.93 311.263L445.862 312.864L447.73 314.465L454.136 320.604L457.605 324.607L461.342 329.412L428.514 362.774L425.134 357.785C423.653 355.598 422.017 353.519 420.24 351.564L417.571 348.895L415.436 347.294C414.26 346.037 412.285 345.981 411.041 347.17L410.631 347.561C410.631 347.561 429.531 329.59 441.058 317.668C443.466 315.177 446.93 311.263 446.93 311.263Z" fill="url(#paint2_linear_70_1660)"/>
</g>
<defs>
<filter id="filter0_f_70_1660" x="-680" y="-748" width="1402" height="1402" filterUnits="userSpaceOnUse" color-interpolation-filters="sRGB">
<feFlood flood-opacity="0" result="BackgroundImageFix"/>
<feBlend mode="normal" in="SourceGraphic" in2="BackgroundImageFix" result="shape"/>
<feGaussianBlur stdDeviation="232" result="effect1_foregroundBlur_70_1660"/>
</filter>
<filter id="filter1_f_70_1660" x="-513" y="78" width="1327" height="1327" filterUnits="userSpaceOnUse" color-interpolation-filters="sRGB">
<feFlood flood-opacity="0" result="BackgroundImageFix"/>
<feBlend mode="normal" in="SourceGraphic" in2="BackgroundImageFix" result="shape"/>
<feGaussianBlur stdDeviation="232" result="effect1_foregroundBlur_70_1660"/>
</filter>
<filter id="filter2_f_70_1660" x="220" y="-145" width="964" height="964" filterUnits="userSpaceOnUse" color-interpolation-filters="sRGB">
<feFlood flood-opacity="0" result="BackgroundImageFix"/>
<feBlend mode="normal" in="SourceGraphic" in2="BackgroundImageFix" result="shape"/>
<feGaussianBlur stdDeviation="172" result="effect1_foregroundBlur_70_1660"/>
</filter>
<linearGradient id="paint0_linear_70_1660" x1="280.92" y1="335.017" x2="259.835" y2="313.932" gradientUnits="userSpaceOnUse">
<stop stop-opacity="0.4"/>
<stop offset="1" stop-opacity="0"/>
</linearGradient>
<linearGradient id="paint1_linear_70_1660" x1="290.261" y1="466.329" x2="321.488" y2="478.34" gradientUnits="userSpaceOnUse">
<stop stop-opacity="0.4"/>
<stop offset="1" stop-opacity="0"/>
</linearGradient>
<linearGradient id="paint2_linear_70_1660" x1="414.101" y1="316.867" x2="443.994" y2="348.094" gradientUnits="userSpaceOnUse">
<stop stop-opacity="0.4"/>
<stop offset="1" stop-opacity="0"/>
</linearGradient>
<clipPath id="clip0_70_1660">
<rect width="702" height="702" fill="white"/>
</clipPath>
</defs>
</svg>
