<svg width="40" height="36" viewBox="0 0 40 36" fill="none" xmlns="http://www.w3.org/2000/svg">
<g clip-path="url(#clip0_54_2078)">
<path d="M36.4365 18C36.4365 27.9411 28.3776 36 18.4365 36C8.4954 36 0.436523 27.9411 0.436523 18C0.436523 8.05887 8.4954 0 18.4365 0C28.3776 0 36.4365 8.05887 36.4365 18Z" fill="white"/>
<g clip-path="url(#clip1_54_2078)">
<path d="M29 13.4438V22.5565L28.7064 22.5851L18.1045 18.1317L18 18.0002L29 13.4438Z" fill="#F36A22"/>
<path d="M29.0003 22.5563L22.5566 29L22.4582 28.9243L17.9629 18.3016L18.0003 18L29.0003 22.5563Z" fill="#F3852F"/>
<path d="M17.9998 18L17.7568 18.167L13.4053 28.8145L13.4435 29H22.5562L17.9998 18Z" fill="#F2C32E"/>
<path d="M7 22.5565L7.27277 22.3444L17.757 17.9614L18 18.0002L13.4437 29.0002L7 22.5565Z" fill="#CBDC38"/>
<path d="M7 13.4438L7.27277 13.4253L17.8492 17.7628L18 18.0001L7 22.5564V13.4438Z" fill="#B5D66D"/>
<path d="M13.4437 7L7 13.4437L18 18L18.0193 17.7202L13.9176 7.26005L13.4437 7Z" fill="#69C5E5"/>
<path d="M13.4434 7H22.556L17.9997 18L13.4434 7Z" fill="#6D9FD5"/>
</g>
</g>
<defs>
<clipPath id="clip0_54_2078">
<rect width="39.4468" height="36" fill="white" transform="translate(0.436523)"/>
</clipPath>
<clipPath id="clip1_54_2078">
<rect width="22" height="22" fill="white" transform="translate(7 7)"/>
</clipPath>
</defs>
</svg>
