<svg width="26" height="26" viewBox="0 0 26 26" fill="none" xmlns="http://www.w3.org/2000/svg">
<g clip-path="url(#clip0_71_576)">
<path fill-rule="evenodd" clip-rule="evenodd" d="M13 26C20.1797 26 26 20.1797 26 13C26 5.8203 20.1797 0 13 0C5.8203 0 0 5.8203 0 13C0 20.1797 5.8203 26 13 26ZM17.0265 19.0417C17.0265 19.0417 16.4991 18.412 16.0596 17.8555C17.9787 17.3137 18.7112 16.1129 18.7112 16.1129C18.1105 16.5083 17.5392 16.7865 17.0265 16.9769C16.294 17.2844 15.5908 17.4894 14.9023 17.6066C13.496 17.8702 12.2068 17.7969 11.1081 17.5919C10.2731 17.4308 9.5553 17.1965 8.95467 16.9622C8.61774 16.8304 8.2515 16.6693 7.88527 16.4643C7.86329 16.4497 7.84132 16.4387 7.81934 16.4277C7.79737 16.4167 7.7754 16.4057 7.75343 16.3911C7.72413 16.3765 7.70948 16.3618 7.69483 16.3472C7.43114 16.2007 7.28464 16.0982 7.28464 16.0982C7.28464 16.0982 7.98781 17.2697 9.84829 17.8262C9.4088 18.3827 8.86678 19.0417 8.86678 19.0417C5.62926 18.9392 4.39872 16.8158 4.39872 16.8158C4.39872 12.1004 6.50823 8.27828 6.50823 8.27828C8.61774 6.69672 10.6247 6.74065 10.6247 6.74065L10.7712 6.91638C8.13431 7.67787 6.91841 8.83475 6.91841 8.83475C6.91841 8.83475 7.2407 8.65902 7.78272 8.41007C9.35021 7.7218 10.5954 7.53143 11.1081 7.4875L11.141 7.48195C11.2149 7.46937 11.2804 7.45821 11.3572 7.45821C12.2508 7.34106 13.2616 7.31177 14.3163 7.42892C15.708 7.59 17.2023 8.00004 18.7258 8.83475C18.7258 8.83475 17.5685 7.73645 15.0781 6.97495L15.2832 6.74065C15.2832 6.74065 17.2902 6.69672 19.3997 8.27828C19.3997 8.27828 21.5092 12.1004 21.5092 16.8158C21.5092 16.8158 20.264 18.9392 17.0265 19.0417ZM10.2145 12.2029C9.37951 12.2029 8.72028 12.9351 8.72028 13.8284C8.72028 14.7217 9.39416 15.4539 10.2145 15.4539C11.0495 15.4539 11.7088 14.7217 11.7088 13.8284C11.7234 12.9351 11.0495 12.2029 10.2145 12.2029ZM15.5615 12.2029C14.7265 12.2029 14.0673 12.9351 14.0673 13.8284C14.0673 14.7217 14.7412 15.4539 15.5615 15.4539C16.3966 15.4539 17.0558 14.7217 17.0558 13.8284C17.0558 12.9351 16.3966 12.2029 15.5615 12.2029Z" fill="white"/>
</g>
<defs>
<clipPath id="clip0_71_576">
<rect width="26" height="26" fill="white"/>
</clipPath>
</defs>
</svg>
