<svg width="54" height="54" viewBox="0 0 54 54" fill="none" xmlns="http://www.w3.org/2000/svg">
<rect opacity="0.1" width="54" height="54" rx="27" fill="white"/>
<path d="M17.375 28.5C17.375 28.5 20.875 21.5 27 21.5C33.125 21.5 36.625 28.5 36.625 28.5C36.625 28.5 33.125 35.5 27 35.5C20.875 35.5 17.375 28.5 17.375 28.5Z" stroke="white" stroke-width="2" stroke-linecap="round" stroke-linejoin="round"/>
<path d="M27 31.5C28.6569 31.5 30 30.1569 30 28.5C30 26.8431 28.6569 25.5 27 25.5C25.3431 25.5 24 26.8431 24 28.5C24 30.1569 25.3431 31.5 27 31.5Z" stroke="white" stroke-width="2" stroke-linecap="round" stroke-linejoin="round"/>
<path d="M19 18.3033L20.1968 19.5" stroke="white" stroke-width="2" stroke-linecap="round" stroke-linejoin="round"/>
<path d="M35.1973 18.5001L34.0005 19.6968" stroke="white" stroke-width="2" stroke-linecap="round" stroke-linejoin="round"/>
<path d="M27 15L27 17.5" stroke="white" stroke-width="2" stroke-linecap="round" stroke-linejoin="round"/>
</svg>
