<svg width="1178" height="99" viewBox="0 0 1178 99" fill="none" xmlns="http://www.w3.org/2000/svg">
<path d="M98.5747 19.4944C58.0548 40.0212 17.1358 61.0578 0 61.0578V98.0288H1399V62.0578L1299.82 19.4362C1247.14 -3.20562 1187.59 -3.86184 1134.42 17.6135L1038.56 56.3289C988.076 76.7184 931.736 77.1954 880.915 57.6635L777.809 18.0377C726.853 -1.54543 670.357 -1.01274 619.78 19.5276L529.087 56.3601C480.39 76.1372 426.135 77.3909 376.576 59.8841L242.343 12.4662C194.951 -4.27514 143.412 -3.21941 98.5747 19.4944Z" fill="url(#paint0_linear_54_1892)"/>
<path d="M0 61.0289C17.1358 61.0289 58.0548 39.9924 98.5747 19.4656C143.412 -3.24822 194.951 -4.30395 242.343 12.4373L376.576 59.8553C426.135 77.3621 480.39 76.1084 529.087 56.3313L619.78 19.4988C670.357 -1.04155 726.853 -1.57424 777.809 18.0089L880.915 57.6347C931.736 77.1666 988.076 76.6896 1038.56 56.3L1134.42 17.5846C1187.59 -3.89064 1247.14 -3.23443 1299.82 19.4074L1422 64" stroke="#643CDA" stroke-width="2"/>
<defs>
<linearGradient id="paint0_linear_54_1892" x1="676.5" y1="-75.5" x2="680" y2="98.0288" gradientUnits="userSpaceOnUse">
<stop stop-color="#643CDA"/>
<stop offset="0.18034" stop-color="#8262E1" stop-opacity="0.805947"/>
<stop offset="0.8935" stop-color="#E3DCF8" stop-opacity="0.179636"/>
<stop offset="1" stop-color="white" stop-opacity="0"/>
</linearGradient>
</defs>
</svg>
