<svg width="157" height="21" viewBox="0 0 157 21" fill="none" xmlns="http://www.w3.org/2000/svg">
<path d="M14.3031 10.5229L14.7951 9.43541C16.2624 9.46994 17.488 9.70298 18.472 10.1345C19.4559 10.5488 20.1896 11.1271 20.6729 11.8694C21.1563 12.6117 21.398 13.4834 21.398 14.4847C21.398 15.5377 21.1563 16.4871 20.6729 17.333C20.2069 18.1616 19.4905 18.8175 18.5238 19.3009C17.5571 19.767 16.3573 20 14.9246 20H0.139318L1.61525 10.031L0.139318 0.5798H14.3808C16.1761 0.5798 17.5743 1.00273 18.5756 1.84859C19.594 2.67718 20.1033 3.83376 20.1033 5.31833C20.1033 6.14692 19.9134 6.93236 19.5336 7.67465C19.1711 8.41693 18.5583 9.04701 17.6952 9.56488C16.8493 10.0655 15.7186 10.3848 14.3031 10.5229ZM6.04306 18.6535L3.73853 15.9088H13.1379C13.8111 15.9088 14.3376 15.7448 14.7174 15.4168C15.0972 15.0716 15.2871 14.5969 15.2871 13.9927C15.2871 13.423 15.0886 12.9569 14.6915 12.5944C14.2945 12.2147 13.7162 12.0248 12.9567 12.0248H5.13678V8.03716H12.1022C12.6373 8.03716 13.0861 7.87316 13.4486 7.54518C13.8111 7.21719 13.9924 6.78563 13.9924 6.2505C13.9924 5.80168 13.8284 5.43053 13.5004 5.13707C13.1897 4.82635 12.7409 4.67099 12.1539 4.67099H3.76442L6.04306 1.92627L7.36363 10.031L6.04306 18.6535ZM35.3967 20.4402C33.0663 20.4402 31.0207 20.0173 29.2599 19.1714C27.5164 18.3255 26.1527 17.1431 25.1687 15.624C24.202 14.1049 23.7187 12.3269 23.7187 10.2899C23.7187 8.25294 24.202 6.47491 25.1687 4.95582C26.1527 3.43673 27.5164 2.25425 29.2599 1.40839C31.0207 0.562538 33.0663 0.139609 35.3967 0.139609C37.7271 0.139609 39.7641 0.562538 41.5076 1.40839C43.2683 2.25425 44.6321 3.43673 45.5988 4.95582C46.5827 6.47491 47.0747 8.25294 47.0747 10.2899C47.0747 12.3269 46.5827 14.1049 45.5988 15.624C44.6321 17.1431 43.2683 18.3255 41.5076 19.1714C39.7641 20.0173 37.7271 20.4402 35.3967 20.4402ZM35.3967 15.0802C36.5533 15.0802 37.5459 14.8903 38.3745 14.5106C39.2203 14.1135 39.8677 13.5611 40.3165 12.8534C40.7653 12.1283 40.9897 11.2739 40.9897 10.2899C40.9897 9.30594 40.7653 8.46009 40.3165 7.75233C39.8677 7.02731 39.2203 6.47491 38.3745 6.09514C37.5459 5.6981 36.5533 5.49958 35.3967 5.49958C34.2401 5.49958 33.2389 5.6981 32.393 6.09514C31.5644 6.47491 30.9257 7.02731 30.4769 7.75233C30.0281 8.46009 29.8037 9.30594 29.8037 10.2899C29.8037 11.2739 30.0281 12.1283 30.4769 12.8534C30.9257 13.5611 31.5644 14.1135 32.393 14.5106C33.2389 14.8903 34.2401 15.0802 35.3967 15.0802ZM49.657 13.6302H55.7679C55.8369 14.079 56.0527 14.476 56.4152 14.8213C56.795 15.1493 57.3042 15.4082 57.9429 15.5981C58.5816 15.7707 59.3326 15.857 60.1957 15.857C61.3868 15.857 62.3103 15.7189 62.9663 15.4427C63.6395 15.1665 63.9761 14.7436 63.9761 14.1739C63.9761 13.7769 63.7863 13.4576 63.4065 13.2159C63.0267 12.9569 62.2758 12.7843 61.1537 12.698L57.7358 12.4132C54.9393 12.206 52.9109 11.6018 51.6508 10.6006C50.4079 9.58214 49.7864 8.21841 49.7864 6.50943C49.7864 5.11118 50.1921 3.94597 51.0034 3.0138C51.8148 2.06437 52.9455 1.34798 54.3955 0.86463C55.8456 0.381283 57.5545 0.139609 59.5224 0.139609C61.4213 0.139609 63.1044 0.407176 64.5717 0.94231C66.0563 1.47744 67.2301 2.23699 68.0932 3.22095C68.9736 4.18764 69.457 5.31833 69.5433 6.61301H63.4324C63.3633 6.23324 63.1648 5.90525 62.8368 5.62905C62.5261 5.33559 62.0773 5.11118 61.4904 4.95582C60.9034 4.80046 60.2043 4.72278 59.393 4.72278C58.3227 4.72278 57.4682 4.85224 56.8295 5.11118C56.2081 5.37012 55.8973 5.75852 55.8973 6.27639C55.8973 6.65616 56.0786 6.96689 56.4411 7.20856C56.8209 7.45024 57.5114 7.61423 58.5126 7.70054L62.2672 8.01126C64.1315 8.14936 65.6333 8.44282 66.7727 8.89165C67.9292 9.32321 68.7665 9.91876 69.2843 10.6783C69.8022 11.4206 70.0611 12.3614 70.0611 13.5007C70.0611 14.8817 69.6468 16.0987 68.8182 17.1517C67.9896 18.1874 66.8244 18.9988 65.3226 19.5857C63.838 20.1554 62.0945 20.4402 60.0921 20.4402C58.0379 20.4402 56.234 20.1554 54.6803 19.5857C53.1267 19.016 51.9097 18.222 51.0293 17.2035C50.149 16.1677 49.6915 14.9766 49.657 13.6302Z" fill="#643CDA"/>
<path d="M95.3442 11.7399C95.1371 13.4662 94.5329 14.9853 93.5317 16.2972C92.5477 17.6092 91.2358 18.6276 89.5958 19.3527C87.9732 20.0777 86.1088 20.4402 84.0028 20.4402C81.7242 20.4402 79.7304 20.0173 78.0214 19.1714C76.3124 18.3255 74.9832 17.1431 74.0338 15.624C73.0844 14.1049 72.6096 12.3269 72.6096 10.2899C72.6096 8.25294 73.0844 6.47491 74.0338 4.95582C74.9832 3.43673 76.3124 2.25425 78.0214 1.40839C79.7304 0.562538 81.7242 0.139609 84.0028 0.139609C86.1088 0.139609 87.9732 0.50212 89.5958 1.22714C91.2358 1.95216 92.5477 2.97064 93.5317 4.28258C94.5329 5.57727 95.1371 7.09636 95.3442 8.83986H89.2851C89.1125 8.09758 88.7931 7.4675 88.3271 6.94963C87.8782 6.41449 87.2913 6.00883 86.5663 5.73263C85.8413 5.43917 84.9868 5.29244 84.0028 5.29244C82.898 5.29244 81.9486 5.49095 81.1545 5.88799C80.3605 6.28502 79.7476 6.86331 79.3161 7.62286C78.8845 8.36514 78.6687 9.25416 78.6687 10.2899C78.6687 11.3256 78.8845 12.2147 79.3161 12.9569C79.7476 13.6992 80.3605 14.2775 81.1545 14.6918C81.9486 15.0888 82.898 15.2874 84.0028 15.2874C84.9868 15.2874 85.8413 15.1579 86.5663 14.899C87.2913 14.6228 87.8782 14.2171 88.3271 13.682C88.7931 13.1468 89.1125 12.4995 89.2851 11.7399H95.3442ZM109.44 20.4402C107.11 20.4402 105.064 20.0173 103.303 19.1714C101.56 18.3255 100.196 17.1431 99.2123 15.624C98.2456 14.1049 97.7622 12.3269 97.7622 10.2899C97.7622 8.25294 98.2456 6.47491 99.2123 4.95582C100.196 3.43673 101.56 2.25425 103.303 1.40839C105.064 0.562538 107.11 0.139609 109.44 0.139609C111.771 0.139609 113.808 0.562538 115.551 1.40839C117.312 2.25425 118.676 3.43673 119.642 4.95582C120.626 6.47491 121.118 8.25294 121.118 10.2899C121.118 12.3269 120.626 14.1049 119.642 15.624C118.676 17.1431 117.312 18.3255 115.551 19.1714C113.808 20.0173 111.771 20.4402 109.44 20.4402ZM109.44 15.0802C110.597 15.0802 111.589 14.8903 112.418 14.5106C113.264 14.1135 113.911 13.5611 114.36 12.8534C114.809 12.1283 115.033 11.2739 115.033 10.2899C115.033 9.30594 114.809 8.46009 114.36 7.75233C113.911 7.02731 113.264 6.47491 112.418 6.09514C111.589 5.6981 110.597 5.49958 109.44 5.49958C108.284 5.49958 107.282 5.6981 106.437 6.09514C105.608 6.47491 104.969 7.02731 104.52 7.75233C104.072 8.46009 103.847 9.30594 103.847 10.2899C103.847 11.2739 104.072 12.1283 104.52 12.8534C104.969 13.5611 105.608 14.1135 106.437 14.5106C107.282 14.8903 108.284 15.0802 109.44 15.0802ZM124.451 0.5798H130.485V20H124.451V0.5798ZM152.606 15.7017L150.871 16.0642V0.5798H156.723V20H149.162L138.727 4.51563L140.436 4.15312V20H134.61V0.5798H142.404L152.606 15.7017Z" fill="black"/>
</svg>
