<svg width="26" height="26" viewBox="0 0 26 26" fill="none" xmlns="http://www.w3.org/2000/svg">
<g clip-path="url(#clip0_71_569)">
<path fill-rule="evenodd" clip-rule="evenodd" d="M26 13C26 20.1797 20.1797 26 13 26C5.8203 26 0 20.1797 0 13C0 5.8203 5.8203 0 13 0C20.1797 0 26 5.8203 26 13ZM18.2239 19.4707C17.0356 19.585 15.9336 19.389 15.1294 18.44C14.4849 17.6798 14.3125 16.7977 14.7068 15.8809C15.005 15.1877 15.3355 14.5074 15.6658 13.8272C15.8139 13.5223 15.962 13.2175 16.1071 12.9115C16.1416 12.839 16.176 12.7665 16.2105 12.694C16.4208 12.2515 16.6312 11.8089 16.835 11.3637C16.8784 11.2686 16.8959 11.1575 16.9008 11.0524C16.9018 11.0328 16.903 11.013 16.9043 10.9932C16.9157 10.8173 16.9273 10.6359 16.7207 10.5314C16.4857 10.4131 16.2085 10.4344 16.0363 10.6461C15.8205 10.911 15.6294 11.201 15.4687 11.5008C15.0442 12.2922 14.6307 13.0895 14.2173 13.8866C14.1123 14.089 14.0073 14.2914 13.9022 14.4937C13.7444 14.7971 13.5879 15.101 13.4313 15.4049C13.2014 15.8513 12.9714 16.2977 12.7376 16.7423C12.3652 17.4509 11.6652 17.7209 10.9066 17.4453C10.6511 17.3521 10.4908 17.1692 10.4477 16.8906C10.3868 16.4955 10.5203 16.1416 10.6645 15.7879C10.817 15.4135 10.9705 15.0394 11.124 14.6653C11.2877 14.2664 11.4514 13.8674 11.6139 13.468L11.6154 13.4643C11.7836 13.0505 11.9519 12.6364 12.1097 12.2188C12.2207 11.9262 12.254 11.6155 12.1246 11.3279C12.0244 11.1061 11.8273 10.9459 11.5508 10.9697C11.2488 10.9957 11.0112 11.1489 10.8974 11.4213C10.6479 12.0194 10.4049 12.6199 10.1618 13.2204C10.0145 13.5844 9.86716 13.9484 9.71843 14.3118C9.61467 14.5656 9.51127 14.8196 9.40788 15.0735C9.04168 15.9729 8.67546 16.8724 8.29257 17.7654C8.1108 18.1885 7.83662 18.5737 7.37539 18.7548C7.14191 18.8469 6.8775 18.9037 6.62608 18.9071C5.8416 18.9172 5.16407 18.6625 4.70129 18.0157C4.33344 17.5014 4.24333 16.9289 4.42119 16.3235L4.42888 16.2973C4.59084 15.7454 4.75276 15.1936 4.92265 14.6439C5.03891 14.2677 5.16038 13.8929 5.28186 13.518C5.33121 13.3657 5.38056 13.2134 5.42956 13.061C5.4777 12.9115 5.52488 12.7617 5.57206 12.6119C5.67991 12.2694 5.78777 11.9268 5.90706 11.5883C5.97485 11.3958 6.04001 11.2022 6.10518 11.0086C6.3645 10.2381 6.62409 9.46675 7.05151 8.76444C7.4174 8.16304 8.01017 7.8379 8.68995 7.63617C9.4007 7.42567 10.0061 7.6907 10.6129 7.98397C10.6725 8.01269 10.7319 8.04192 10.7913 8.07115C10.9612 8.15481 11.1312 8.23849 11.3062 8.31018C11.6358 8.4446 11.9362 8.35947 12.2023 8.14887L12.2305 8.12659C12.4391 7.96184 12.6486 7.79641 12.8407 7.61412C13.3423 7.13848 14.4258 7.05034 14.9554 7.60379C15.0421 7.69445 15.1399 7.77503 15.2376 7.85552C15.2773 7.88823 15.317 7.92093 15.3559 7.95428C15.6331 8.19213 15.7476 8.21641 16.0684 8.04063C16.8311 7.62227 17.6212 7.68015 18.3978 7.94836C18.8484 8.1041 19.1181 8.47591 19.2903 8.91621C19.5437 9.56456 19.4375 10.1906 19.1837 10.8C18.978 11.2936 18.7643 11.784 18.5507 12.2744C18.279 12.8978 18.0074 13.5212 17.7524 14.1509C17.4824 14.8186 17.2542 15.505 17.0603 16.1968C16.9812 16.4788 16.9806 16.8131 17.0544 17.0964C17.1659 17.5253 17.5704 17.6658 17.9792 17.7161C18.6021 17.7929 19.2133 17.6803 19.8098 17.52C20.7875 17.2574 21.4484 18.5842 20.4427 19.0536C19.7183 19.2623 18.9775 19.3981 18.2239 19.4707Z" fill="white"/>
</g>
<defs>
<clipPath id="clip0_71_569">
<rect width="26" height="26" fill="white"/>
</clipPath>
</defs>
</svg>
