<svg width="40" height="36" viewBox="0 0 40 36" fill="none" xmlns="http://www.w3.org/2000/svg">
<g clip-path="url(#clip0_54_2089)">
<path d="M18.4365 36C28.3776 36 36.4365 27.9411 36.4365 18C36.4365 8.05888 28.3776 0 18.4365 0C8.4954 0 0.436523 8.05888 0.436523 18C0.436523 27.9411 8.4954 36 18.4365 36Z" fill="white"/>
<path d="M23.8564 26H26.6208C26.721 26 26.8171 25.9601 26.8879 25.8892C26.9587 25.8182 26.9986 25.722 26.9986 25.6217L27 19.7708C27 16.7127 26.3422 14.3621 22.7747 14.3621C21.4186 14.3116 20.1397 15.0119 19.4496 16.1813C19.4463 16.187 19.4411 16.1914 19.435 16.1939C19.4289 16.1963 19.4221 16.1967 19.4158 16.195C19.4094 16.1933 19.4038 16.1895 19.3997 16.1843C19.3957 16.1791 19.3935 16.1727 19.3934 16.166V15.0229C19.3934 14.9225 19.3536 14.8262 19.2828 14.7553C19.2119 14.6843 19.1159 14.6444 19.0157 14.6444H16.3923C16.2921 14.6444 16.196 14.6843 16.1252 14.7553C16.0543 14.8262 16.0145 14.9225 16.0145 15.0229V25.6211C16.0145 25.7215 16.0543 25.8177 16.1252 25.8887C16.196 25.9597 16.2921 25.9995 16.3923 25.9995H19.1565C19.2567 25.9995 19.3528 25.9597 19.4236 25.8887C19.4945 25.8177 19.5343 25.7215 19.5343 25.6211V20.3822C19.5343 18.9009 19.8148 17.4664 21.648 17.4664C23.4552 17.4664 23.4786 19.1614 23.4786 20.4782V25.6216C23.4786 25.7219 23.5184 25.8182 23.5893 25.8892C23.6601 25.9601 23.7562 26 23.8564 26ZM10 11.0461C10 12.1687 10.9224 13.0923 12.043 13.0923C13.1633 13.0922 14.0852 12.168 14.0852 11.0458C14.085 9.92349 13.163 9 12.0426 9C10.922 9 10 9.92368 10 11.0461ZM10.6572 26H13.4251C13.5253 26 13.6214 25.9601 13.6923 25.8892C13.7631 25.8182 13.8029 25.7219 13.8029 25.6216V15.0229C13.8029 14.9225 13.7631 14.8262 13.6923 14.7553C13.6214 14.6843 13.5253 14.6444 13.4251 14.6444H10.6572C10.557 14.6444 10.461 14.6843 10.3901 14.7553C10.3193 14.8262 10.2795 14.9225 10.2795 15.0229V25.6216C10.2795 25.7219 10.3193 25.8182 10.3901 25.8892C10.461 25.9601 10.557 26 10.6572 26Z" fill="#0A66C2"/>
</g>
<defs>
<clipPath id="clip0_54_2089">
<rect width="39.4468" height="36" fill="white" transform="translate(0.436523)"/>
</clipPath>
</defs>
</svg>
