<svg width="54" height="54" viewBox="0 0 54 54" fill="none" xmlns="http://www.w3.org/2000/svg">
<rect opacity="0.1" width="54" height="54" rx="27" fill="white"/>
<path d="M29.25 18.2835C28.5309 18.0984 27.7769 18 27 18C22.0294 18 18 22.0294 18 27C18 31.9706 22.0294 36 27 36C31.9706 36 36 31.9706 36 27C36 26.2231 35.9016 25.4691 35.7165 24.75" stroke="white" stroke-width="2" stroke-linecap="round" stroke-linejoin="round"/>
<path d="M25.75 22.1575C23.5935 22.7125 22 24.6701 22 26.9999C22 29.7614 24.2386 31.9999 27 31.9999C29.3298 31.9999 31.2874 30.4065 31.8425 28.2499" stroke="white" stroke-width="2" stroke-linecap="round" stroke-linejoin="round"/>
<path d="M27 27L34.3684 19.6316M34.3684 19.6316V17M34.3684 19.6316H37" stroke="white" stroke-width="2" stroke-linecap="round" stroke-linejoin="round"/>
</svg>
