<svg width="26" height="26" viewBox="0 0 26 26" fill="none" xmlns="http://www.w3.org/2000/svg">
<path fill-rule="evenodd" clip-rule="evenodd" d="M26 13C26 20.1797 20.1797 26 13 26C5.8203 26 0 20.1797 0 13C0 5.8203 5.8203 0 13 0C20.1797 0 26 5.8203 26 13ZM19.0564 10.9518C20.0638 10.9167 20.9071 11.7222 20.9442 12.7536C20.9567 13.4733 20.563 14.1354 19.9368 14.4569C19.9491 14.6447 19.9491 14.8325 19.9368 15.0204C19.9368 17.8919 16.6817 20.2224 12.6673 20.2224C8.65278 20.2224 5.39776 17.8887 5.39776 15.0204C5.3854 14.8325 5.3854 14.6447 5.39776 14.4569C5.21489 14.3742 5.05057 14.2564 4.90806 14.1194C4.17333 13.4126 4.13934 12.2283 4.82753 11.4771C5.51573 10.7226 6.6689 10.6875 7.40036 11.3943C8.83892 10.3946 10.5283 9.84709 12.2643 9.81834L13.185 5.37414V5.36779C13.2315 5.15125 13.4393 5.01759 13.6468 5.06537L16.7034 5.69242C16.8988 5.3424 17.2521 5.10682 17.6459 5.06537C18.331 4.98884 18.9446 5.49828 19.0192 6.20186C19.0935 6.90544 18.5976 7.53566 17.9125 7.6122C17.2274 7.68855 16.6136 7.1793 16.5392 6.47571L13.8701 5.89944L13.061 9.89487C14.7753 9.93296 16.4431 10.4775 17.8629 11.4706C18.1854 11.1555 18.61 10.9677 19.0564 10.9518ZM9.72234 12.7536C9.03414 12.7536 8.47301 13.3299 8.47301 14.0367C8.47301 14.7434 9.03105 15.3133 9.72234 15.3197C10.4105 15.3197 10.9717 14.7434 10.9717 14.0367C10.9717 13.3299 10.4105 12.7536 9.72234 12.7536ZM12.6364 18.5447C13.7461 18.5923 14.8311 18.2421 15.7176 17.5577V17.6087C15.8541 17.4717 15.8572 17.2426 15.7238 17.1024C15.5905 16.9624 15.3673 16.9593 15.231 17.0961C14.4715 17.6531 13.5538 17.927 12.6238 17.876C11.6939 17.9206 10.7794 17.6341 10.0292 17.0705C9.90211 16.9656 9.72543 16.9656 9.60146 17.0705C9.45877 17.1917 9.43714 17.4112 9.55493 17.5577C10.4414 18.2421 11.5264 18.5923 12.6364 18.5447ZM14.2452 14.0813C14.2452 14.788 14.8062 15.3643 15.4944 15.3643L15.4851 15.4119H15.5471C16.2353 15.3833 16.7717 14.788 16.7437 14.0813C16.7437 13.3745 16.1826 12.7983 15.4944 12.7983C14.8062 12.7983 14.2452 13.3745 14.2452 14.0813Z" fill="white"/>
</svg>
