<svg width="54" height="54" viewBox="0 0 54 54" fill="none" xmlns="http://www.w3.org/2000/svg">
<rect opacity="0.1" width="54" height="54" rx="27" fill="white"/>
<path d="M35 36V34C35 32.9391 34.5786 31.9217 33.8284 31.1716C33.0783 30.4214 32.0609 30 31 30H23C21.9391 30 20.9217 30.4214 20.1716 31.1716C19.4214 31.9217 19 32.9391 19 34V36" stroke="white" stroke-width="2" stroke-linecap="round" stroke-linejoin="round"/>
<path d="M27 26C29.2091 26 31 24.2091 31 22C31 19.7909 29.2091 18 27 18C24.7909 18 23 19.7909 23 22C23 24.2091 24.7909 26 27 26Z" stroke="white" stroke-width="2" stroke-linecap="round" stroke-linejoin="round"/>
<path d="M41 35.9999V33.9999C40.9993 33.1136 40.7044 32.2527 40.1614 31.5522C39.6184 30.8517 38.8581 30.3515 38 30.1299" stroke="white" stroke-width="2" stroke-linecap="round" stroke-linejoin="round"/>
<path d="M34 18.1299C34.8604 18.3502 35.623 18.8506 36.1676 19.5522C36.7122 20.2538 37.0078 21.1167 37.0078 22.0049C37.0078 22.8931 36.7122 23.756 36.1676 24.4576C35.623 25.1592 34.8604 25.6596 34 25.8799" stroke="white" stroke-width="2" stroke-linecap="round" stroke-linejoin="round"/>
<path d="M13 35.9999V33.9999C13.0007 33.1136 13.2956 32.2527 13.8386 31.5522C14.3816 30.8517 15.1419 30.3515 16 30.1299" stroke="white" stroke-width="2" stroke-linecap="round" stroke-linejoin="round"/>
<path d="M20 18.1299C19.1396 18.3502 18.377 18.8506 17.8324 19.5522C17.2878 20.2538 16.9922 21.1167 16.9922 22.0049C16.9922 22.8931 17.2878 23.756 17.8324 24.4576C18.377 25.1592 19.1396 25.6596 20 25.8799" stroke="white" stroke-width="2" stroke-linecap="round" stroke-linejoin="round"/>
</svg>
