<svg width="40" height="36" viewBox="0 0 40 36" fill="none" xmlns="http://www.w3.org/2000/svg">
<g clip-path="url(#clip0_54_2055)">
<path fill-rule="evenodd" clip-rule="evenodd" d="M36.4365 18C36.4365 27.9411 28.3776 36 18.4365 36C8.4954 36 0.436523 27.9411 0.436523 18C0.436523 8.05888 8.4954 0 18.4365 0C28.3776 0 36.4365 8.05888 36.4365 18ZM26.9911 13.6128C27.8613 13.5095 28.6911 13.2781 29.4624 12.9361C28.8858 13.7989 28.1565 14.5564 27.3152 15.1629C27.3235 15.3471 27.3277 15.5328 27.3277 15.7193C27.3277 21.4054 22.9999 27.9613 15.086 27.9613C12.6564 27.9613 10.3943 27.2493 8.49121 26.0281C8.82716 26.0682 9.17049 26.0884 9.51702 26.0884C11.5334 26.0884 13.3883 25.4008 14.8611 24.2466C12.9779 24.2117 11.3893 22.9677 10.8419 21.2587C11.1044 21.3088 11.3736 21.3354 11.6514 21.3354C12.0432 21.3354 12.4241 21.2831 12.7847 21.1843C10.8169 20.7893 9.33317 19.0505 9.33317 16.9658C9.33317 16.9479 9.33317 16.9296 9.33349 16.9113C9.91329 17.2344 10.5772 17.4279 11.2821 17.45C10.1283 16.6787 9.36814 15.3612 9.36814 13.8688C9.36814 13.0805 9.58055 12.3409 9.95084 11.7055C12.073 14.3094 15.2435 16.0222 18.8193 16.2015C18.7455 15.8864 18.7073 15.5582 18.7073 15.221C18.7073 12.8453 20.6341 10.9185 23.0098 10.9185C24.248 10.9185 25.3663 11.4408 26.1511 12.2767C27.1307 12.0838 28.0519 11.7261 28.8833 11.2329C28.5614 12.2382 27.8796 13.0805 26.9911 13.6128Z" fill="white"/>
</g>
<defs>
<clipPath id="clip0_54_2055">
<rect width="39.4468" height="36" fill="white" transform="translate(0.436523)"/>
</clipPath>
</defs>
</svg>
